<svg xmlns="http://www.w3.org/2000/svg" viewBox="0 0 381.11 150"><defs><style>.a{fill:#3ca03c;}</style></defs><title>Asset 1</title><path class="a" d="M105.2,3V145a3,3,0,0,1-3,3H77.64a3,3,0,0,1-3-3.23l.15-2.35a3,3,0,0,0-5.13-2.36Q59.32,150,42.8,150q-13.6,0-23.2-6.2A39.28,39.28,0,0,1,5,126.6a60.33,60.33,0,0,1-5-25.2q0-17,7-29.8A51.53,51.53,0,0,1,25.8,51.7a50.26,50.26,0,0,1,26.4-7.1,38.53,38.53,0,0,1,12.6,2A32.6,32.6,0,0,1,70.16,49,3,3,0,0,0,74.6,46.2h0V3a3,3,0,0,1,3-3h24.54A3,3,0,0,1,105.2,3ZM55.2,71.2q-11,0-17.3,8.2t-6.3,21q0,11,4.9,17t13.3,6q10.2,0,17.5-8.4t7.3-22q0-10.2-5.2-16T55.2,71.2Z"/><path class="a" d="M199.55,70.64a4.91,4.91,0,0,1-5.56,4,41,41,0,0,0-6.19-.42q-10.41,0-16.6,7.3t-9,23.6q-2.55,14.78-2.78,38a4.91,4.91,0,0,1-4.91,4.88H133.92a4.92,4.92,0,0,1-4.92-4.92V82l-.35-30.83a4.93,4.93,0,0,1,4.92-5H154a4.92,4.92,0,0,1,4.91,5.19h0A4.92,4.92,0,0,0,167.4,55a29.65,29.65,0,0,1,4.9-4.23,34,34,0,0,1,19.5-6.2,45.74,45.74,0,0,1,6.3.4l1,.16a4.94,4.94,0,0,1,4,5.75Z"/><path class="a" d="M300.19,150q-15.39,0-23.7-8.5t-8.3-24.7V10.23A10.23,10.23,0,0,1,278.42,0h10.15a10.22,10.22,0,0,1,10.22,10.23V114.6q0,9.2,8.6,9.2l.94,0a10.09,10.09,0,0,1,10,6.93l1.48,4.36a10.18,10.18,0,0,1-6.46,13l-.12,0A42.73,42.73,0,0,1,300.19,150Z"/><path class="a" d="M361,150q-15.39,0-23.7-8.5T329,116.8V10.23A10.23,10.23,0,0,1,339.22,0h10.15a10.22,10.22,0,0,1,10.22,10.23V114.6q0,9.2,8.6,9.2l.94,0a10.09,10.09,0,0,1,10,6.93l1.48,4.36a10.18,10.18,0,0,1-6.46,13l-.12,0A42.73,42.73,0,0,1,361,150Z"/><ellipse class="a" cx="230.49" cy="15.29" rx="16" ry="15"/><path class="a" d="M244.09,92l-30.68,36.56c-.15,11.16.19,19,.79,19.46s2.67.79,5.54,1.05l25.7-30.62C245.23,110.17,244.81,101,244.09,92Z"/><path class="a" d="M239.61,60.05l-24,28.55c-1,10.25-1.68,20.91-2,30.33l29.68-35.37A185.87,185.87,0,0,0,239.61,60.05Z"/><path class="a" d="M230,44.29c-6.37.11-10.5,15-13.05,33.43l20.62-24.57C235.54,47.61,233.05,44.24,230,44.29Z"/><path class="a" d="M227.23,149.46c7.88.2,16.56-.18,17.57-1.46.5-.63.86-8.86.78-20.41Z"/></svg>